<svg xmlns="http://www.w3.org/2000/svg" role="presentation" stroke-width="1" focusable="false" width="32" height="32" class="icon icon-cart" viewBox="0 0 22 22">
            <path d="M14.666 7.333a3.666 3.666 0 1 1-7.333 0M3.33 6.785l-.642 7.7c-.137 1.654-.206 2.48.073 3.119a2.75 2.75 0 0 0 1.21 1.314c.612.332 1.442.332 3.102.332h7.853c1.66 0 2.49 0 3.103-.332a2.75 2.75 0 0 0 1.21-1.314c.279-.638.21-1.465.072-3.12l-.642-7.7c-.118-1.423-.178-2.134-.493-2.673A2.75 2.75 0 0 0 16.99 3.02c-.563-.269-1.277-.269-2.705-.269h-6.57c-1.428 0-2.142 0-2.705.27A2.75 2.75 0 0 0 3.823 4.11c-.315.539-.374 1.25-.493 2.674Z" fill="none" stroke="currentColor" stroke-linecap="round" stroke-linejoin="round"></path>
          </svg>